<svg xmlns="http://www.w3.org/2000/svg" width="39.561" height="39.561" viewBox="0 0 39.561 39.561">
  <g id="Grupo_57" data-name="Grupo 57" transform="translate(-425.94 -127.755)">
    <path id="Caminho_235" data-name="Caminho 235" d="M445.72,166.566h0a19.03,19.03,0,0,1-19.03-19.03h0a19.03,19.03,0,0,1,19.03-19.031h0a19.031,19.031,0,0,1,19.031,19.031h0A19.031,19.031,0,0,1,445.72,166.566Z" fill="none" stroke="#5d5d5d" stroke-width="1.5"/>
    <g id="Grupo_56" data-name="Grupo 56">
      <path id="Caminho_236" data-name="Caminho 236" d="M445.72,138.981c2.786,0,3.116.011,4.217.061a5.781,5.781,0,0,1,1.937.36,3.449,3.449,0,0,1,1.98,1.98,5.781,5.781,0,0,1,.36,1.937c.05,1.1.061,1.431.061,4.217s-.011,3.116-.061,4.216a5.782,5.782,0,0,1-.36,1.938,3.449,3.449,0,0,1-1.98,1.98,5.762,5.762,0,0,1-1.937.359c-1.1.05-1.43.061-4.217.061s-3.116-.011-4.216-.061a5.769,5.769,0,0,1-1.938-.359,3.456,3.456,0,0,1-1.98-1.98,5.764,5.764,0,0,1-.359-1.938c-.05-1.1-.061-1.43-.061-4.216s.011-3.116.061-4.217a5.762,5.762,0,0,1,.359-1.937,3.456,3.456,0,0,1,1.98-1.98,5.789,5.789,0,0,1,1.938-.36c1.1-.05,1.43-.061,4.216-.061m0-1.88c-2.834,0-3.189.013-4.3.063a7.666,7.666,0,0,0-2.533.485,5.336,5.336,0,0,0-3.051,3.052,7.639,7.639,0,0,0-.485,2.533c-.051,1.113-.063,1.468-.063,4.3s.012,3.189.063,4.3a7.639,7.639,0,0,0,.485,2.533,5.336,5.336,0,0,0,3.051,3.052,7.692,7.692,0,0,0,2.533.485c1.113.05,1.468.062,4.3.062s3.189-.012,4.3-.062a7.692,7.692,0,0,0,2.533-.485,5.341,5.341,0,0,0,3.052-3.052,7.667,7.667,0,0,0,.485-2.533c.051-1.113.063-1.468.063-4.3s-.012-3.189-.063-4.3a7.667,7.667,0,0,0-.485-2.533,5.341,5.341,0,0,0-3.052-3.052,7.666,7.666,0,0,0-2.533-.485c-1.113-.05-1.468-.063-4.3-.063" fill="#5d5d5d"/>
      <path id="Caminho_237" data-name="Caminho 237" d="M445.72,142.178a5.358,5.358,0,1,0,5.358,5.358,5.358,5.358,0,0,0-5.358-5.358m0,8.836a3.478,3.478,0,1,1,3.478-3.478,3.478,3.478,0,0,1-3.478,3.478" fill="#5d5d5d"/>
      <path id="Caminho_238" data-name="Caminho 238" d="M452.542,141.966a1.252,1.252,0,1,1-1.252-1.252,1.252,1.252,0,0,1,1.252,1.252" fill="#5d5d5d"/>
    </g>
  </g>
</svg>
