<svg xmlns="http://www.w3.org/2000/svg" width="34.932" height="42" viewBox="0 0 34.932 42">
  <g id="Grupo_47" data-name="Grupo 47" transform="translate(-364.062 -40.451)">
    <path id="Caminho_21" data-name="Caminho 21" d="M414.937,208.692a23.612,23.612,0,0,1,1.6,10.163c-.126,2.038,1.83,4.773,4.186,5.853a4.22,4.22,0,0,0,4.988-.76c.026-.028.05-.056.074-.085.951-1.145.786-2.949-.351-4.693a.976.976,0,0,1,.691-.271h.04l.03-.025a.165.165,0,0,0,.026-.026.243.243,0,0,0,.042-.207,3.5,3.5,0,0,0-1.335-1.629.231.231,0,0,0-.242.021l-.028.023-.01.034a1.218,1.218,0,0,1-.426.639,5.836,5.836,0,0,0-4.362-1.672,1.664,1.664,0,0,1-1.449-1.11,24.985,24.985,0,0,1-1.275-7.193c.1-.246.184-.481.268-.715l.333-.03a24.951,24.951,0,0,1,6.575,3.205,1.691,1.691,0,0,1,.646,1.758,6.205,6.205,0,0,0,.57,5.179,6.818,6.818,0,0,0,2.128,2.291,6.716,6.716,0,0,1,2.023,2.046,4.823,4.823,0,0,0,1.012,1.174c1.973,1.577,3.5,1.274,3.65,1.238a.618.618,0,0,0,.2-.056.534.534,0,0,0,.291-.519.577.577,0,0,0-.6-.547c-.018,0-1.805-.031-2.3-1.321a3.261,3.261,0,0,1-.143-1.631,2.758,2.758,0,0,1,.528-1.289,3.928,3.928,0,0,0,.627-1.236,6.23,6.23,0,0,0-.847-4.838,6.084,6.084,0,0,0-3.514-2.986,15.888,15.888,0,0,1-4.2-1.323,2.88,2.88,0,0,1-1.63-1.826.946.946,0,0,0-.3-.524,1.193,1.193,0,0,0-.791-.006,2.272,2.272,0,0,1-1.791-.2c-.6-.425-1.128-.824-1.618-1.214a20.2,20.2,0,0,1,2.153-2,1.072,1.072,0,0,0,.4-1.155,1.1,1.1,0,0,0,.879-.551.509.509,0,0,0,.04-.054l-.01-.005s.005-.009.007-.014a.713.713,0,0,0-.016-.624,2.753,2.753,0,0,0,1.77-1.791l1.01,1.76.1-.011c3.626-.42,6.24-.259,7.99.492l.1.044.42-.522-.3-.6.379-.442-.055-.092-8.876-14.637a.9.9,0,0,0-.329-.323,5.52,5.52,0,0,0-6.208.66,4.1,4.1,0,0,0-1.262.251l-.036.014-.366.455,4.829,8.411c.01.605-.014,1-.425,1.084a2.728,2.728,0,0,0-2.24,2.425.671.671,0,0,0-.573.108,1.17,1.17,0,0,0-.454,1.036,1.065,1.065,0,0,0-1.051.63c-.261.531-.546,1.042-.849,1.538a167.6,167.6,0,0,0-14.285-15.843l0,0a.279.279,0,0,0-.431.351l.018.029-.181-.2a.279.279,0,0,0-.454.323,172.787,172.787,0,0,0,12.241,19.39c-1.241,1.359-2.574,2.625-3.888,3.872-3.708,3.517-7.211,6.838-8.007,11.656a2.551,2.551,0,0,0,2.9,2.344c4.547-1.819,7.036-5.954,9.673-10.332C413.525,210.939,414.209,209.8,414.937,208.692Zm-3.129,3.783a44.649,44.649,0,0,1-3.071,4.328,21.879,21.879,0,0,1-3.9,3.777,26.4,26.4,0,0,0,3.577-3.984c1.053-1.414,2-2.882,2.946-4.361s1.884-2.973,2.915-4.435l.2-.273c.057.134.113.269.167.4l-.039.061C413.651,209.486,412.753,210.992,411.807,212.475Zm.768-7.388.262.365c-.128.15-.255.3-.384.448-1.571,1.775-3.261,3.389-4.9,5.036a39.977,39.977,0,0,0-4.569,5.241l-.253.358-.127.179c-.041.06-.077.124-.115.186l-.458.751a8.123,8.123,0,0,0-.433.766,5.04,5.04,0,0,0-.326.806,2.163,2.163,0,0,0,.1,1.682,1.773,1.773,0,0,0,.6.644,1.476,1.476,0,0,0,.416.171,1.27,1.27,0,0,0,.457.005,1.273,1.273,0,0,1-.46.034,1.49,1.49,0,0,1-.444-.139,1.851,1.851,0,0,1-.685-.625,1.9,1.9,0,0,1-.314-.882,2.954,2.954,0,0,1,.06-.93,5.065,5.065,0,0,1,.284-.873,7.758,7.758,0,0,1,.394-.811l.425-.788.106-.2.119-.188.24-.376a32.152,32.152,0,0,1,4.508-5.425c1.65-1.66,3.374-3.233,5.013-4.924C412.253,205.433,412.414,205.26,412.576,205.087ZM416.918,203l-1.475-1.622c-.218-.257-.437-.513-.65-.776l-.455-.564-.313-.389a1.087,1.087,0,0,0-.151-.17,1.038,1.038,0,0,0,.112.186c.072.108.17.251.27.392l.041.059-4.23-4.653q-1.386-1.738-2.813-3.443l-.681-.8c-.41-.481-.962-1.117-1.521-1.746-.279-.316-.563-.626-.827-.92l-.732-.793-.527-.552-.15-.153a.312.312,0,0,0-.057-.051.3.3,0,0,0,.043.059l.132.155.481.547.677.775.77.893c1.046,1.219,2.062,2.462,2.062,2.462q.443.538.88,1.082l-6.181-6.8-.81-1.307A177.267,177.267,0,0,1,416.918,203Zm-.453-3.062c-.193.425-.406.838-.628,1.244l-.074-.093C416.006,200.71,416.243,200.329,416.465,199.934Zm.456.018a6.224,6.224,0,0,0,.973,1.085,6.048,6.048,0,0,0,1.2.841A2.728,2.728,0,0,1,416.921,199.952Zm.889,4.451.016.015c.559.455,1.17.917,1.869,1.415a2.535,2.535,0,0,0,2.006.245,1.3,1.3,0,0,1,.585-.036.836.836,0,0,1,.187.378,3.17,3.17,0,0,0,1.77,1.988,16.139,16.139,0,0,0,4.272,1.349,5.8,5.8,0,0,1,3.325,2.85,5.947,5.947,0,0,1,.82,4.61,3.638,3.638,0,0,1-.582,1.146,3.052,3.052,0,0,0-.583,1.423,3.538,3.538,0,0,0,.159,1.774c.005.015.013.027.019.041-.005-.01-.012-.02-.018-.031a2.979,2.979,0,0,1-.3-1.308,3.021,3.021,0,0,1,.319-1.378,2.668,2.668,0,0,0,2.114,4.3,3.043,3.043,0,0,1-1.275-.582c-.05-.038-.095-.081-.142-.122a3.544,3.544,0,0,0,1.854.586.292.292,0,0,1,.318.277.248.248,0,0,1-.243.275l-.02,0a4.286,4.286,0,0,1-3.41-1.182,4.523,4.523,0,0,1-.954-1.112,6.973,6.973,0,0,0-2.1-2.124,6.537,6.537,0,0,1-2.037-2.2,5.953,5.953,0,0,1-.539-4.967,1.977,1.977,0,0,0-.754-2.055,25.285,25.285,0,0,0-6.682-3.256l-.03-.01-.031,0a18.9,18.9,0,0,1-3.41.072.4.4,0,0,1-.292-.167,181.777,181.777,0,0,1-13.83-21.588Zm2.037,11.938a6.153,6.153,0,0,1,2.987.692c-.038-.019-.076-.04-.114-.058a5.094,5.094,0,0,0-2.631-.474,5.492,5.492,0,0,1,2.524.665,6.473,6.473,0,0,1,1.938,1.619,7.683,7.683,0,0,1,.719,1.044,5.861,5.861,0,0,1,.523,1.16,3.613,3.613,0,0,1,.176,1.27,2.719,2.719,0,0,1-.369,1.265,2.649,2.649,0,0,0,.5-1.242c.012-.088.017-.176.022-.264a2.5,2.5,0,0,1-.617,1.733,3.948,3.948,0,0,1-4.663.7c-2.261-1.036-4.139-3.642-4.02-5.573a24.751,24.751,0,0,0-2.2-11.746l0-.01-.014-.023c.509.031,1.051.036,1.633.014-.013.065-.026.13-.043.2l-.027.114c-.013.058-.026.116-.013.123s.05-.039.082-.086.061-.1.061-.1c.044-.082.084-.167.121-.254l.1-.005c-.023.077-.051.153-.073.229,0,0-.027.1-.049.2a.543.543,0,0,0-.026.2c.013,0,.056-.082.1-.168l.08-.174c.043-.1.094-.2.14-.294l.106-.006-.107.359-.064.222-.007.026v.059l0,.057,0,.114c.013.3.023.607.061.915s.078.6.121.9c.171,1.2.382,2.4.656,3.582l.121.5c.079.3.17.7.313,1.092a3.233,3.233,0,0,0,.259.553,2.216,2.216,0,0,0,.326.421,1.655,1.655,0,0,0,.294.235.98.98,0,0,0,.092.051.11.11,0,0,0,.034.014s-.045-.031-.121-.085a1.868,1.868,0,0,1-.286-.259,2.263,2.263,0,0,1-.311-.448,3.441,3.441,0,0,1-.24-.579c-.128-.408-.216-.831-.289-1.146l-.114-.526c-.243-1.159-.428-2.329-.574-3.5-.037-.293-.071-.589-.1-.882s-.032-.586-.039-.881l0-.111v-.046l.01-.032.065-.212.129-.406.073-.005c-.074.2-.147.4-.231.614l-.011.029,0,.031a25.308,25.308,0,0,0,1.294,7.31A1.928,1.928,0,0,0,419.847,216.341Zm6.092,2.347a1.965,1.965,0,0,0-.3-.266s-.043-.03-.09-.054-.1-.043-.1-.032.021.051.051.089l.058.075a1.8,1.8,0,0,1,.164.239l-.052.019a1.566,1.566,0,0,0-.119-.106.555.555,0,0,0-.054-.033c-.028-.015-.059-.026-.069-.016s0,.039.01.066.022.053.022.053c.018.037.03.074.045.112-.013.007-.025.016-.038.024a.94.94,0,0,0-.1-.1.379.379,0,0,0-.048-.031c-.026-.014-.055-.023-.064-.014s0,.037,0,.062l.015.048a.752.752,0,0,1,.037.151l-.007.006a8.593,8.593,0,0,0-.724-.906c-.034-.035-.068-.066-.1-.1l.11.041s.113.04.128.017-.06-.109-.06-.109l-.064-.069c.042.02.084.036.124.061l.067.037c.034.018.07.035.08.025s0-.045-.024-.079a.58.58,0,0,0-.041-.064,1.9,1.9,0,0,0-.138-.146,1.746,1.746,0,0,1,.221.125l.084.054c.043.027.087.055.1.046s-.011-.055-.039-.1a.889.889,0,0,0-.059-.081c-.034-.041-.072-.079-.111-.117a3.173,3.173,0,0,1,.378.286l.132.119c.066.061.132.123.143.115s-.03-.085-.078-.159-.1-.142-.1-.142a3.346,3.346,0,0,0-.521-.511c.014-.033.031-.064.042-.1a2.355,2.355,0,0,1,.7.645,2.4,2.4,0,0,1,.494.805C426,218.674,425.971,218.683,425.939,218.687Zm-24.426.869a26.2,26.2,0,0,1,3.533-5.687,26.733,26.733,0,0,1,4.891-4.637c-1.587,1.682-3.011,3.33-4.389,5.016S402.844,217.665,401.513,219.556Zm31.273-20.682a4.6,4.6,0,0,0-2.582-1.261l-.211-.021c-.063-.008-.138-.008-.217-.011a2.418,2.418,0,0,0-.249,0,2.3,2.3,0,0,0-.667.1c0,.019.351-.019.7,0,.086,0,.173.012.253.021s.155.018.219.03l.154.025.058.013a4.381,4.381,0,0,1,1.464.587,6.085,6.085,0,0,0-1.276-.373,5.355,5.355,0,0,0-.567-.063,2.162,2.162,0,0,0-.569.016c0,.019.3.038.585.087.145.023.289.05.4.075s.178.042.178.042a5.83,5.83,0,0,1,1.38.533,9.922,9.922,0,0,0-5.437-.38,4.579,4.579,0,0,1,2.971-.82A4.313,4.313,0,0,1,432.786,198.875Zm-14.776-14.222q2.627,4.151,5.162,8.36l1.154,1.916.794,1.317.266.432a1.121,1.121,0,0,0,.108.16,1.253,1.253,0,0,0-.09-.181l-.255-.466-.791-1.4-1.168-2.032q-2.424-4.166-4.941-8.277c.1-.071.206-.139.312-.2q2.248,3.569,4.421,7.184l1,1.664.691,1.143.232.375a.845.845,0,0,0,.095.138,1,1,0,0,0-.076-.158l-.219-.406-.683-1.222-1.01-1.768q-2.063-3.568-4.2-7.094c.11-.059.222-.113.335-.164l3.646,6,.847,1.381.589.946.2.309a.57.57,0,0,0,.083.113.66.66,0,0,0-.063-.132l-.185-.337-.575-1.016-.845-1.472-3.422-5.908q.179-.069.361-.125l2.874,4.752.671,1.1.468.749a2.7,2.7,0,0,0,.226.333,2.9,2.9,0,0,0-.19-.376l-.448-.81-.661-1.173-2.65-4.654q.194-.048.388-.081l2.073,3.45.488.8.341.545a1.439,1.439,0,0,0,.169.24,1.553,1.553,0,0,0-.13-.278l-.316-.6-.469-.861-1.847-3.344c.139-.015.279-.024.419-.028l1.237,2.085s.586.979.617.962-.514-1.081-.514-1.081l-1.013-1.965a4.947,4.947,0,0,1,2.241.626.61.61,0,0,1,.22.218l8.249,13.6-.063-.041q-1.166-1.748-2.241-3.557l-.492-.825-.339-.567a1.54,1.54,0,0,0-.166-.251,1.668,1.668,0,0,0,.127.289c.083.17.2.395.314.618.233.447.475.889.475.889q.873,1.587,1.816,3.136l-.07-.029-.973-1.476a6.441,6.441,0,0,0-.487-.667,7.131,7.131,0,0,0,.381.776l.664,1.214-.032-.01-.268-.419s-.135-.2-.167-.188.038.26.038.26l.077.26a6.631,6.631,0,0,0-1.448-.177,4.559,4.559,0,0,0-3.335,1.06l-8.09-13.535Zm-1.621.615.082-.1,5.659,9.506s2.616,4.386,2.646,4.368-2.642-4.653-2.642-4.653l-5.428-9.4a4.124,4.124,0,0,1,.966-.168l8.272,13.841.1-.016c3.059-.493,5.23-.228,6.448.785l.077.152a7.7,7.7,0,0,0-2.182-.669,12.724,12.724,0,0,0-2.731-.128l-.386.03c-.231.025-.539.059-.843.116a6.8,6.8,0,0,0-.827.2c-.111.033-.2.073-.263.1a.35.35,0,0,0-.1.046c0,.01.157-.04.391-.1a8.293,8.293,0,0,1,.869-.154c.159-.021.318-.04.468-.05s.289-.026.41-.029l.29-.012.11,0a12.739,12.739,0,0,1,2.626.214,7.282,7.282,0,0,1,2.284.832l-.113.141c-1.781-.728-4.381-.886-7.94-.482l-1.377-2.4,0-.015h-.01Zm4.1,9.757c.485-.1.62-.469.655-.874l.052.091-.021.01a.679.679,0,0,1-.2.728,2.49,2.49,0,0,1-.789.469,2.459,2.459,0,0,0-.831.56,2.209,2.209,0,0,0-.506.862,2.008,2.008,0,0,0-.064.277,2.109,2.109,0,0,0-.006.619,2.025,2.025,0,0,0,.172.589.829.829,0,0,0,.145.236c.009,0-.045-.107-.1-.268a2.3,2.3,0,0,1-.121-.608,2.144,2.144,0,0,1,.057-.611,1.964,1.964,0,0,1,.085-.265,2.06,2.06,0,0,1,.514-.745,2.005,2.005,0,0,1,.364-.266,3.739,3.739,0,0,1,.419-.195,2.484,2.484,0,0,0,.863-.49,1.2,1.2,0,0,0,.28-.445l.027.047a.464.464,0,0,1-.048.273.848.848,0,0,1-.224.261,2.8,2.8,0,0,1-.661.382,4,4,0,0,0-.728.375,1.8,1.8,0,0,0-.722,1.357,1.611,1.611,0,0,0,.055.5.589.589,0,0,0,.088.212,2.178,2.178,0,0,0-.039-.233,1.8,1.8,0,0,1,0-.508,1.856,1.856,0,0,1,.14-.483,1.715,1.715,0,0,1,.107-.2,1.558,1.558,0,0,1,.518-.522,4.547,4.547,0,0,1,.7-.309,2.941,2.941,0,0,0,.719-.381,1.1,1.1,0,0,0,.3-.328c.005-.009.008-.019.013-.028l1.255,2.185a2.4,2.4,0,0,1-.407,1.165,2.339,2.339,0,0,1-1.052.848,2.7,2.7,0,0,1-.605.168c-.314.052-.635.015-.637.033a1.672,1.672,0,0,0,.679.062,2.488,2.488,0,0,0,.468-.082c.125-.035.206-.067.206-.067a2.5,2.5,0,0,0,1.139-.859,2.639,2.639,0,0,0,.428-.887l.073.128a2.5,2.5,0,0,1-1.836,1.941,2.356,2.356,0,0,1-2-.512l-.013-.011a2.355,2.355,0,0,1-.93-1.84A2.457,2.457,0,0,1,420.493,195.026Zm-2.467,2.434h0Zm-.243.059c0,.008,0,.018,0,.025l-.021-.008Zm-.286.438a2.468,2.468,0,0,0,.089.316,3.633,3.633,0,0,0,.34.7,2.944,2.944,0,0,0,.207.285.935.935,0,0,0,.252.245,2.12,2.12,0,0,0-.179-.315c-.091-.154-.166-.315-.166-.315a3.448,3.448,0,0,1-.246-.683,1.039,1.039,0,0,1-.009-.646c.007.066.022.113.032.171a3.589,3.589,0,0,0,.13.442,3.412,3.412,0,0,0,.43.8,2.877,2.877,0,0,0,.266.313,1.137,1.137,0,0,0,.319.256,3.781,3.781,0,0,0-.255-.335,3.756,3.756,0,0,1-.227-.347,3.225,3.225,0,0,1-.327-.778,3.116,3.116,0,0,1-.082-.41.859.859,0,0,1-.012-.177c0-.006,0-.009,0-.009h0l-.023-.011a.062.062,0,0,1-.008-.023.056.056,0,0,1,0-.012.342.342,0,0,1,.146.036,2.689,2.689,0,0,0,1.041,2l.013.011a2.692,2.692,0,0,0,2.168.589.371.371,0,0,1,.075.179h0v.012a.109.109,0,0,1-.049.067.577.577,0,0,1-.186.069,1.949,1.949,0,0,1-.454.057s-.1,0-.211,0-.215-.017-.22,0,.1.068.212.1a1.647,1.647,0,0,0,.229.051,2.155,2.155,0,0,0,.49.012l.046,0a.8.8,0,0,1-.316.082,2.447,2.447,0,0,1-.618-.022s-.14-.021-.279-.055a1.31,1.31,0,0,0-.285-.063.744.744,0,0,0,.266.163,2.274,2.274,0,0,0,.295.106,2.624,2.624,0,0,0,.53.087,1.01,1.01,0,0,1-.351.031,3.878,3.878,0,0,1-3.079-2.469A.933.933,0,0,1,417.5,197.957Zm-1.117,1.114a.759.759,0,0,1,.852-.45,4.209,4.209,0,0,0,3.234,2.6.761.761,0,0,1-.26.933,20.455,20.455,0,0,0-2.1,1.946.727.727,0,0,0-.072-.14,20.482,20.482,0,0,1,2.08-1.922.662.662,0,0,0,.251-.68,4.39,4.39,0,0,1-3.245-2.607.532.532,0,0,0-.459.185,5.736,5.736,0,0,0,1.444,1.8,5.673,5.673,0,0,0,2.066,1.111,4.007,4.007,0,0,1-3.513-2.9,1,1,0,0,0-.148.2c-.289.588-.608,1.151-.946,1.7l-.1-.122C415.793,200.187,416.1,199.64,416.381,199.071ZM412.6,211.909c-2.61,4.334-5.075,8.428-9.516,10.205a2.276,2.276,0,0,1-2.508-2.03c.779-4.706,4.246-7.994,7.917-11.476,1.3-1.236,2.626-2.492,3.861-3.839l.088.124c-1.231,1.342-2.549,2.591-3.847,3.823-3.652,3.464-7.1,6.736-7.873,11.393a2.143,2.143,0,0,0,2.32,1.864c4.382-1.754,6.834-5.827,9.431-10.14.733-1.217,1.476-2.448,2.273-3.65.022.057.044.113.065.17C414.032,209.525,413.309,210.723,412.6,211.909Zm5.658,5.835-.007.008c-.821.988-.462,2.7.759,4.116-.047-.051-.1-.1-.142-.152a6.41,6.41,0,0,1-1.2-2.039,5.681,5.681,0,0,0,1.021,2.169,6.042,6.042,0,0,0,.809.875c.154.125.3.259.466.37.081.057.16.116.244.171l.254.154a2.892,2.892,0,0,0,.261.143c.089.044.177.091.267.133l.276.114c.046.018.091.039.138.055l.142.046c.095.031.189.062.285.091l.291.069c.049.011.1.024.146.033l.148.023.3.043a2.914,2.914,0,0,0,1.207-.086,1.461,1.461,0,0,0,.909-.773,1.439,1.439,0,0,1-.934.646,2.937,2.937,0,0,1-1.138,0l-.07-.014a2.337,2.337,0,0,0,2.1-.7l.008-.009a2.4,2.4,0,0,0,.286-2.318,6.073,6.073,0,0,0-4.578-3.851A2.392,2.392,0,0,0,418.253,217.743Zm2.2-.4a5.788,5.788,0,0,1,4.344,3.653,2.126,2.126,0,0,1-.233,2.049l-.006.008a2.122,2.122,0,0,1-1.985.588,5.358,5.358,0,0,1-2.65-1.258c-1.675-1.409-2.329-3.4-1.46-4.445l.006-.007A2.122,2.122,0,0,1,420.457,217.34Zm1.151-.456a6.149,6.149,0,0,1,4.109,4.072,8.183,8.183,0,0,0-4.109-4.072Zm1.427,7.453a5.271,5.271,0,0,1-5.046-3.319,6.407,6.407,0,0,0,5.046,3.319ZM416.7,213.414c-.051-.2-.117-.47-.184-.738-.136-.536-.286-1.069-.286-1.069a35.94,35.94,0,0,0-1.505-4.3l.212-.087a36.246,36.246,0,0,1,1.43,4.455s.128.514.237,1.032c.055.259.1.519.14.714a2.348,2.348,0,0,1,.047.328.362.362,0,0,1-.03-.091C416.744,213.6,416.723,213.515,416.7,213.414Zm10.338-2.59a2.393,2.393,0,0,0-1.276,1.968,5.055,5.055,0,0,0,.083,1.764,7.623,7.623,0,0,1-.256-1.918,6.3,6.3,0,0,0,.822,4.028,5.365,5.365,0,0,0,1.366,1.562,3.415,3.415,0,0,0,.93.5,2.5,2.5,0,0,0,1.05.136,3.062,3.062,0,0,1-1.832-.8c-.087-.074-.166-.154-.247-.234a2.705,2.705,0,0,0,2.85.778l.054-.025c1.343-.656,1.667-2.877.718-4.995C430.335,211.442,428.423,210.2,427.036,210.824Zm4,2.881c.886,1.977.623,4.032-.581,4.62l-.046.021c-1.243.557-2.985-.618-3.883-2.62a5.358,5.358,0,0,1-.482-2.894,2.118,2.118,0,0,1,1.11-1.747C428.4,210.528,430.138,211.7,431.036,213.705Zm-3.494,4c.037.035.072.073.11.107C427.615,217.772,427.577,217.738,427.542,217.7Zm-11.684-13.585a.888.888,0,1,0,.452.506A.882.882,0,0,0,415.858,204.116Zm-1.007,1.017a.66.66,0,0,1,.332-.809h0a.464.464,0,0,0-.177.276.722.722,0,0,1,.291-.1.885.885,0,0,1,.239,0,.914.914,0,0,1,.23.065.735.735,0,0,1,.252.175.448.448,0,0,0-.063-.274.658.658,0,0,1,.137.228h0a.654.654,0,0,1-.028.5.673.673,0,0,1-.1.143.491.491,0,0,0,.022-.452.571.571,0,0,1-.2.328.534.534,0,0,1-.282.128.526.526,0,0,1-.3-.066.564.564,0,0,1-.261-.285.483.483,0,0,0,.087.4A.653.653,0,0,1,414.851,205.133Zm-5.742-6.155q-2.037-2.907-3.969-5.886s-.872-1.351-1.7-2.726l-.606-1.013-.518-.89-.356-.636-.1-.18a.311.311,0,0,1-.03-.066.278.278,0,0,1,.045.061l.115.18.4.65.568.916.659,1.045c.451.71.909,1.416,1.256,1.943l.58.877c1.281,1.926,2.605,3.823,3.956,5.7q1.013,1.408,2.045,2.8l.257.348a2.54,2.54,0,0,0,.272.306c.064.062.136.116.206.172q-2.48-3.368-4.8-6.848s-.568-.854-1.122-1.717c-.278-.431-.552-.865-.756-1.191l-.243-.4-.066-.112a.167.167,0,0,1-.02-.041.179.179,0,0,1,.03.038l.079.112.272.4.823,1.227,1.208,1.777q2.478,3.614,5.135,7.1c.075.037.152.071.23.1l-2.79-3.884s-1.361-1.9-1.339-1.916,1.5,1.938,1.5,1.938l3,3.982.093.024.071.012-1.736-2.461s-.878-1.251-.856-1.267.991,1.258.991,1.258l1.9,2.5c.08,0,.16,0,.24,0l-.422-.637a3.082,3.082,0,0,1-.25-.433,3.38,3.38,0,0,1,.356.384l.548.663c.158-.021.293-.051.42-.079s.25-.055.346-.07c.192-.031.3-.021.32.019s-.055.107-.224.2a2.716,2.716,0,0,1-.334.149,2.212,2.212,0,0,1-.521.13,3.278,3.278,0,0,1-3.1-1.675Q410.128,200.432,409.109,198.977Zm20.233,11.281a7.271,7.271,0,0,1,2.862,3.088,5.591,5.591,0,0,1,.511,2.046,4.8,4.8,0,0,1-.346,2.1,5.512,5.512,0,0,0,.125-2.09,6.592,6.592,0,0,0-.561-1.942A9.176,9.176,0,0,0,429.342,210.258Zm2.341,3.245a7.493,7.493,0,0,0-1.864-2.547,6.053,6.053,0,0,1,2.538,5.631A7.5,7.5,0,0,0,431.684,213.5Zm-3.371,5.289a5.739,5.739,0,0,1-2.935-4.859,7.525,7.525,0,0,0,2.935,4.859Zm2.077,3.016a11.142,11.142,0,0,0-2.228-2.462A4.478,4.478,0,0,1,430.389,221.807Zm.65-.625a2.758,2.758,0,0,0,.658,1.257,1.956,1.956,0,0,1-.6-2.674A2.77,2.77,0,0,0,431.039,221.183Zm-5.692-9.918a1.357,1.357,0,0,0-.131-.543,1.8,1.8,0,0,0-.314-.448,5.022,5.022,0,0,0-.861-.667c-.605-.4-1.219-.779-1.847-1.126s-1.274-.663-1.94-.957-1.355-.557-2.074-.8a16.538,16.538,0,0,1,4.121,1.59,16.826,16.826,0,0,1,1.836,1.177c.146.11.291.22.437.336a2.808,2.808,0,0,1,.4.393,1.815,1.815,0,0,1,.288.485A1.35,1.35,0,0,1,425.348,211.265Zm-2.6-3.572a2.147,2.147,0,0,1-.5-1.366,4.551,4.551,0,0,0,.726,1.18,3.789,3.789,0,0,0,1.063.863A1.954,1.954,0,0,1,422.75,207.693Zm-5.293-1.215a11.31,11.31,0,0,1-1.6.22q-.4.026-.793.024c-.132,0-.263,0-.395-.009l-.2-.01-.258-.018-.336-.425-.293-.379q-.29-.38-.574-.771c-.378-.521-.749-1.057-1.118-1.617.453.494.885.983,1.3,1.475q.312.368.613.739l.3.373.255.326.131.012.194.016.388.026q.388.023.782.033C416.382,206.507,416.913,206.5,417.456,206.478Z" transform="translate(-35.835 -142.741)" fill="#5d5d5d"/>
  </g>
</svg>
