<svg xmlns="http://www.w3.org/2000/svg" width="45.487" height="60.829" viewBox="0 0 45.487 60.829"><defs><style>.a{fill:none;stroke:#fff;stroke-linecap:round;stroke-linejoin:round;}.b{fill:#fff;}</style></defs><g transform="translate(-551.425 -154.494)"><g transform="translate(551.925 155.012)"><path class="a" d="M594.677,190.037a19.659,19.659,0,0,1-6.264-4l-9.639-10.007-.041.038c-1.526-1.677-3.769-4.133-6.267-6.846q-.71-.771-1.445-1.566-.554-.6-1.117-1.206c-1.753-1.891-3.553-3.82-5.264-5.632-1.508-1.6-2.947-3.1-4.224-4.412-3.548-3.635-8.491.992-8.491.992l3.018,3.268,5.2,5.63,1.117,1.208,1.446,1.566,10.94,11.84,5.526-1.051s5.1,5.312,6.723,7.183C590.085,191.858,600.5,192.645,594.677,190.037Z" transform="translate(-551.925 -155.012)"/><path class="b" d="M590.2,196.089l-2.969-2.434c-2.117-1.739-25.691,26.756-25.691,26.756-1.5,1.826-2.055,5.11-.825,7.1a3.356,3.356,0,0,0,.729.847l1.049.861c2.119,1.738,6.034.469,7.772-1.649,0,0,10.789-14.551,16.551-23.891C589.291,199.664,590.837,196.611,590.2,196.089Zm-2.524,2.38a1.5,1.5,0,1,1-.209-2.116A1.5,1.5,0,0,1,587.677,198.468Z" transform="translate(-555.021 -169.72)"/></g><path class="a" d="M575.552,229.623" transform="translate(-9.011 -28.455)"/><path class="a" d="M594.882,206.813" transform="translate(-16.383 -19.756)"/><path class="a" d="M567.984,238.844" transform="translate(-6.125 -31.972)"/><path class="a" d="M572.687,233.2" transform="translate(-7.918 -29.819)"/><line class="a" x1="20.196" y1="22.254" transform="translate(553.302 156.111)"/></g></svg>