<svg xmlns="http://www.w3.org/2000/svg" width="30" height="48" viewBox="0 0 30 48"><defs><style>.a{fill:none;stroke:#fff;stroke-miterlimit:10;stroke-width:2px;}</style></defs><g transform="translate(-298 -128)"><path class="a" d="M324,170v-6.272a9,9,0,0,0-2.636-6.364L315,151l6.364-6.364A9,9,0,0,0,324,138.272V134"/><path class="a" d="M302,134v4.272a9,9,0,0,0,2.636,6.364L311,151l-6.364,6.364A9,9,0,0,0,302,163.728V170"/><path class="a" d="M327,129H299v3a2,2,0,0,0,2,2h24a2,2,0,0,0,2-2Z"/><path class="a" d="M325,170H301a2,2,0,0,0-2,2v3h28v-3A2,2,0,0,0,325,170Z"/><path class="a" d="M320,168c0-2-7-5-7-5s-7,3-7,5"/><line class="a" y2="2" transform="translate(313 154)"/><line class="a" y2="2" transform="translate(313 158)"/></g></svg>