<svg xmlns="http://www.w3.org/2000/svg" width="46.299" height="45" viewBox="0 0 46.299 45"><defs><style>.a,.b{fill:none;stroke:#fff;stroke-width:2px;}.a{stroke-miterlimit:10;}.b{stroke-linejoin:round;}</style></defs><g transform="translate(-129 -209)"><path class="a" d="M136,215h-6v-1a4,4,0,0,1,4-4h0"/><path class="a" d="M146,248h28c-.661,2.5-3,5-5,5H142C144,253,145.509,250.5,146,248Z"/><path class="a" d="M168,248V214a4,4,0,0,0-4-4H134a3.888,3.888,0,0,1,4,4.125V249a3.787,3.787,0,0,0,4,4h1"/><circle class="b" cx="11" cy="11" r="11" transform="translate(142 218)"/><path class="b" d="M158,224l-5,6-4-3"/></g></svg>