<svg xmlns="http://www.w3.org/2000/svg" width="47" height="43" viewBox="0 0 47 43"><defs><style>.a,.b{fill:none;stroke:#fff;stroke-width:2px;}.a{stroke-linejoin:round;}.b{stroke-miterlimit:10;}</style></defs><g transform="translate(-208 -51)"><path class="a" d="M240,54h5a1,1,0,0,1,1,1V69"/><path class="a" d="M230,83H210a1,1,0,0,1-1-1V55a1,1,0,0,1,1-1h5"/><circle class="a" cx="11" cy="11" r="11" transform="translate(232 71)"/><line class="a" x2="37" transform="translate(209 62)"/><path class="a" d="M248,77l-5,6-4-3"/><line class="a" y2="6" transform="translate(238 51)"/><line class="a" x2="17" transform="translate(219 54)"/><line class="a" y2="6" transform="translate(217 51)"/><line class="b" x2="3" transform="translate(220 67)"/><line class="b" x2="3" transform="translate(225 67)"/><line class="b" x2="3" transform="translate(230 67)"/><line class="b" x2="3" transform="translate(235 67)"/><line class="b" x2="3" transform="translate(215 72)"/><line class="b" x2="3" transform="translate(220 72)"/><line class="b" x2="3" transform="translate(225 72)"/><line class="b" x2="3" transform="translate(230 72)"/><line class="b" x2="3" transform="translate(215 77)"/><line class="b" x2="3" transform="translate(220 77)"/><line class="b" x2="3" transform="translate(225 77)"/></g></svg>